<svg width="16" height="16" viewBox="0 0 16 16" fill="none" xmlns="http://www.w3.org/2000/svg">
<g id="Tags filters/asicon/outline/layer">
<g id="vuesax/outline/layer">
<g id="layer">
<path id="Vector" d="M7.85993 7.92C7.49993 7.92 7.13327 7.85333 6.8466 7.72667L2.91327 5.98C1.91327 5.53333 1.7666 4.93333 1.7666 4.60667C1.7666 4.28 1.91327 3.68 2.91327 3.23333L6.8466 1.48667C7.4266 1.22667 8.29994 1.22667 8.87994 1.48667L12.8199 3.23333C13.8133 3.67333 13.9666 4.28 13.9666 4.60667C13.9666 4.93333 13.8199 5.53333 12.8199 5.98L8.87994 7.72667C8.5866 7.86 8.2266 7.92 7.85993 7.92ZM7.85993 2.29333C7.63327 2.29333 7.41327 2.32667 7.25327 2.4L3.31993 4.14667C2.91327 4.33333 2.7666 4.52 2.7666 4.60667C2.7666 4.69333 2.91327 4.88667 3.31327 5.06667L7.2466 6.81333C7.5666 6.95333 8.1466 6.95333 8.4666 6.81333L12.4066 5.06667C12.8133 4.88667 12.9599 4.69333 12.9599 4.60667C12.9599 4.52 12.8133 4.32667 12.4066 4.14667L8.47327 2.4C8.31327 2.33333 8.0866 2.29333 7.85993 2.29333Z" fill="#1A2A39"/>
<path id="Vector_2" d="M8 11.3933C7.74667 11.3933 7.49333 11.34 7.25333 11.2333L2.72667 9.22C2.04 8.92 1.5 8.08667 1.5 7.33333C1.5 7.06 1.72667 6.83333 2 6.83333C2.27333 6.83333 2.5 7.06 2.5 7.33333C2.5 7.7 2.8 8.16 3.13333 8.31333L7.66 10.3267C7.87333 10.42 8.12 10.42 8.34 10.3267L12.8667 8.31333C13.2 8.16667 13.5 7.7 13.5 7.33333C13.5 7.06 13.7267 6.83333 14 6.83333C14.2733 6.83333 14.5 7.06 14.5 7.33333C14.5 8.08667 13.96 8.92 13.2733 9.22667L8.74667 11.24C8.50667 11.34 8.25333 11.3933 8 11.3933Z" fill="#1A2A39"/>
<path id="Vector_3" d="M8 14.7267C7.74667 14.7267 7.49333 14.6733 7.25333 14.5667L2.72667 12.5533C1.98 12.22 1.5 11.48 1.5 10.66C1.5 10.3867 1.72667 10.16 2 10.16C2.27333 10.16 2.5 10.3933 2.5 10.6667C2.5 11.0867 2.74667 11.4733 3.13333 11.6467L7.66 13.66C7.87333 13.7533 8.12 13.7533 8.34 13.66L12.8667 11.6467C13.2533 11.4733 13.5 11.0933 13.5 10.6667C13.5 10.3933 13.7267 10.1667 14 10.1667C14.2733 10.1667 14.5 10.3933 14.5 10.6667C14.5 11.4867 14.02 12.2267 13.2733 12.56L8.74667 14.5733C8.50667 14.6733 8.25333 14.7267 8 14.7267Z" fill="#1A2A39"/>
</g>
</g>
</g>
</svg>
